<svg width="162" height="195" viewBox="0 0 162 195" fill="none" xmlns="http://www.w3.org/2000/svg">
<path d="M74.798 94.9668L109 35L60 184" stroke="white"/>
<path d="M109 35L84 191" stroke="white"/>
<path d="M42.3741 74.8254V12.8107H57.5646M57.5646 12.8107L44.3454 70.7657M57.5646 12.8107L59.4635 5.30313L74.7539 8.14137M74.7539 8.14137L78.2517 1L107.18 12.8107M74.7539 8.14137L1 160.033L21.787 168.586M107.18 12.8107H132.118V19.3112M107.18 12.8107L115.428 16.1784M132.118 19.3112L115.428 16.1784M132.118 19.3112L147.708 22.4241L146.309 28.7862M115.428 16.1784L146.309 28.7862M146.309 28.7862L161 34.7842L132.184 94.0209M21.787 168.586L20.0881 175.231L41.8745 179.608M21.787 168.586L54.9663 182.239M54.9663 182.239L41.8745 179.608M54.9663 182.239L64.6357 186.218M41.8745 179.608V186.218H64.6357M64.6357 186.218L83.5484 194L86.3988 188.14M86.3988 188.14L108.233 192.352L109.647 186.309M86.3988 188.14L130.358 97.7747M130.358 97.7747L132.184 94.0209M130.358 97.7747L109.647 186.309M132.184 94.0209V186.309H109.647" stroke="white"/>
<path d="M32 172L65 112" stroke="white"/>
<path d="M67 110L70 106" stroke="white"/>
<path d="M41.6 75L46.2 80.1033L50.9 83.978L57.1 87.0967L64.3 90.0264L70.6 92.767L75 95.6022L78.2 98.6264L80.6 101.745L82.2 104.864L83.2 107.604L83.5 109.4L84 110.818L83.5 111.385H82.5L81.6 110.345L79.6 107.321L77.6 104.108L76.1 102.501L74 101.084L75 115.07L74 117.149L73.1 118L72.3 117.716L71.7 116.204V108.266L70.9 114.409L70.2 116.204L69.3 116.582L68.6 115.732L68.2 113.464L68.6 107.321L68.2 105.147L63.2 100.044L64.7 106.281L65.6 110.818V113.464L64.7 113.842L63.8 112.991L62.8 110.818L60.4 103.541L58.8 100.516L56.1 98.6264L53.2 97.0198L48.5 95.0352L43.6 91.3495L37 84.6396" stroke="white"/>
</svg>
