<svg id="Layer_1" data-name="Layer 1" xmlns="http://www.w3.org/2000/svg" viewBox="0 0 462.5 384.1"><defs><style>.cls-1{fill:none;stroke:#fff;stroke-miterlimit:10;stroke-width:2px;}</style></defs><path class="cls-1" d="M222.9,154l64.3-24.5,60.6,87.3L384.6,85.3l33.7,49.1-3,147.6L222.9,364.7V154l-53.3-31.3-52.7,87.6L97.3,51.6,44.5,94.4V285.7l178.4,79"/><polyline class="cls-1" points="384.6 85.3 325.2 62.4 275.2 123.1"/><polyline class="cls-1" points="169.6 122.7 229.1 103.5 287.2 129.5"/><polyline class="cls-1" points="220.5 106.3 193.1 38.5 97.3 51.6"/><polygon class="cls-1" points="286.2 247.4 286.2 285.2 308.4 277.8 307.6 242.6 286.2 247.4"/><polygon class="cls-1" points="126.8 237.1 126.8 270.6 143.6 278 143.6 241.9 126.8 237.1"/><polyline class="cls-1" points="367.4 302.6 364.1 215.6 403.3 206.4 408.6 208.2 408.6 216.1 404.5 217.2 404.6 286.6"/><polyline class="cls-1" points="404.5 217.2 370.4 224.4 370.4 218.4 364.1 215.6"/><line class="cls-1" x1="370.4" y1="224.4" x2="364.3" y2="221.7"/><polyline class="cls-1" points="308.4 277.8 302.2 274.4 286.2 280"/><polyline class="cls-1" points="302.2 274.4 302.2 246.2 287.1 249.4"/><polyline class="cls-1" points="143.6 273.9 130.5 268.5 130.5 242.4 130.5 240 143.1 243.9"/><polygon class="cls-1" points="184.6 125.9 226 145.3 271.6 127.8 229.1 108.3 184.6 125.9"/><polyline class="cls-1" points="83 302.8 84.8 237.1 49.8 232 47.9 287.2"/><polygon class="cls-1" points="195.5 126.8 225.6 141.4 262.5 127.7 229.1 112 195.5 126.8"/><path class="cls-1" d="M247.4,208.5l14.9,9.3,21.2,1,13.8-14.1c1.6-5.4,3.2-10.7,4.7-16.1-2.9-6.3-5.8-12.6-8.8-18.9l-13.5-8.8-22,.4L244,174.7c-1.5,6.1-2.9,12.2-4.3,18.3Z"/><path class="cls-1" d="M305.8,110.4l-.6,12.7,7,13.5,19.4,8.7L350,134.4l11.9-15.3-1.6-12.8L342.8,92.8l-15.6-4.4-11.3,4.4-7.2,7.8Z"/><path class="cls-1" d="M129.8,83.7l8.9,15,17.1,7.2,24.3-5.5L191,90.9c.5-6.1.9-12.1,1.4-18.1a65.7,65.7,0,0,0-10.3-10.4c-3.7-2.9-7-5.6-12-7.3a32.6,32.6,0,0,0-17.2-.7l-15.4,4.7L130,68.2Z"/><path class="cls-1" d="M167.4,226.1l-11.9-8.5L147,206.1l4.2,23.5a99.4,99.4,0,0,0,37,54.2l31.8,8.4,17.1-.2,27.5-20.9,8.1-32-14,12.3L248,254.5l-14.5,1c-4.7-3.1-9.8-6.2-15.6-9.3a189.9,189.9,0,0,0-21.1-9.7l-17.7-7.6Z"/><polygon class="cls-1" points="66.4 121.3 56.9 123.1 56.9 137.3 73.9 137.3 89.2 126.7 66.4 121.3"/><path class="cls-1" d="M382.8,175l9.9,10.7,8.8-9.4,5.7-16.4-15.6-5.5-5.2,10.4s-11.6-1.6-11-.8Z"/><polygon class="cls-1" points="257.4 188.2 265.6 195.2 275.6 202.3 286.8 193.2 284.7 174.7 272.1 174.7 263.8 174.7 257.4 188.2"/><polygon class="cls-1" points="319.1 115.1 329.9 126.8 342.9 121 344.8 112 333.5 105.9 324.1 105.9 319.1 115.1"/><polygon class="cls-1" points="143.6 81.9 158.9 88.4 174.8 87.1 176.6 76.4 161.1 67.6 145.8 67.6 143.6 81.9"/><path class="cls-1" d="M167.4,226.1l1.1,7.8,5.7-6.2,4.2,6.2.7-5,5.5,8-2.8,9.8,9.4-12.8,2.8,12.8,5.8-9,2.4,7.6,7.7-1.4,1.5,7.3,6.5-5s2.2,7.5,2.2,7.6,5-3.6,5-3.6l6.1,9.3,2.3-4,3.6,5.3,6.8-6.4,6.8,9.8,4.5-10.4,4.1,5.7,5.2-13.2"/><polyline class="cls-1" points="264.6 271.1 257 265.9 259.6 274.9 249.6 267.8 252.1 280.5 244.5 271.3 243 282.1 237.7 265.9 237.1 292 229.7 264.2 223.6 279.6 217.5 272.3 217.5 290.9 214.5 282.1 206.6 287.6 209.9 275.9 196.2 283.8 200.4 270.8 187.9 280.9 192.1 266.4 185 269.9 190.6 252.9 171.1 265.5 176.7 249.2 167.4 253.8 176.5 236.9 159.7 246.6 164.4 230.2 156.6 236.9"/></svg>