<svg width="1373" height="872" viewBox="0 0 1373 872" fill="none" xmlns="http://www.w3.org/2000/svg">
<circle cx="1161.5" cy="341.5" r="2.5" fill="white"/>
<circle cx="84.5" cy="429.5" r="2.5" fill="white"/>
<circle cx="544.5" cy="604.5" r="2.5" fill="white"/>
<circle cx="530.5" cy="349.5" r="2.5" fill="white"/>
<circle cx="373.5" cy="113.5" r="2.5" fill="white"/>
<circle cx="202.5" cy="64.5" r="2.5" fill="white"/>
<circle cx="1078.5" cy="719.5" r="2.5" fill="white"/>
<circle cx="308.195" cy="439.728" r="2.5" fill="white"/>
<circle cx="1324.5" cy="335.5" r="2.5" fill="white"/>
<circle cx="94.5" cy="796.5" r="2.5" fill="white"/>
<circle cx="1217.5" cy="719.5" r="2.5" fill="white"/>
<circle cx="364.5" cy="300.5" r="2.5" fill="white"/>
<circle cx="7.5" cy="96.5" r="2.5" fill="white"/>
<circle cx="551.5" cy="599.5" r="2.5" fill="white"/>
<circle cx="877.5" cy="2.5" r="2.5" fill="white"/>
<circle cx="69.5" cy="219.5" r="2.5" fill="white"/>
<circle cx="665.5" cy="57.5" r="2.5" fill="white"/>
<circle cx="1064.5" cy="136.5" r="2.5" fill="white"/>
<circle cx="1329.5" cy="262.5" r="2.5" fill="white"/>
<circle cx="1331.5" cy="869.5" r="2.5" fill="white"/>
<circle cx="1192.5" cy="33.5" r="2.5" fill="white"/>
<circle cx="1212.5" cy="191.5" r="2.5" fill="white"/>
<circle cx="1346.5" cy="108.5" r="2.5" fill="white"/>
<circle cx="1289.5" cy="62.5" r="2.5" fill="white"/>
<circle cx="1164.5" cy="111.5" r="2.5" fill="white"/>
<circle cx="1370.5" cy="207.5" r="2.5" fill="white"/>
<circle cx="1294.5" cy="456.5" r="2.5" fill="white"/>
<circle cx="1169.5" cy="586.5" r="2.5" fill="white"/>
<circle cx="435.5" cy="653.5" r="2.5" fill="white"/>
<circle cx="229.5" cy="868.5" r="2.5" fill="white"/>
<circle cx="76.5" cy="638.5" r="2.5" fill="white"/>
<circle cx="248.5" cy="636.5" r="2.5" fill="white"/>
<circle cx="330.5" cy="650.5" r="2.5" fill="white"/>
<circle cx="806.5" cy="491.5" r="2.5" fill="white"/>
<circle cx="708.5" cy="383.5" r="2.5" fill="white"/>
<circle cx="290.5" cy="235.5" r="2.5" fill="white"/>
<circle cx="24.5" cy="320.5" r="2.5" fill="white"/>
<circle cx="69.5" cy="511.5" r="2.5" fill="white"/>
<circle cx="762.5" cy="178.5" r="2.5" fill="white"/>
<circle cx="124.5" cy="8.5" r="2.5" fill="white"/>
<circle cx="909.5" cy="227.5" r="2.5" fill="white"/>
<circle cx="577.5" cy="273.5" r="2.5" fill="white"/>
<circle cx="428.5" cy="224.5" r="2.5" fill="white"/>
<circle cx="572.5" cy="755.5" r="2.5" fill="white"/>
<circle cx="980.5" cy="778.5" r="2.5" fill="white"/>
<circle cx="1148.5" cy="832.5" r="2.5" fill="white"/>
<circle cx="419.5" cy="788.5" r="2.5" fill="white"/>
<circle cx="2.5" cy="713.5" r="2.5" fill="white"/>
<circle cx="869.5" cy="801.5" r="2.5" fill="white"/>
<circle cx="813.5" cy="702.5" r="2.5" fill="white"/>
<path d="M159 106.625L184 155.949" stroke="#9E93B3"/>
<path d="M92 95L151.441 99.374" stroke="#9E93B3"/>
<path d="M84 88L43.8307 25.3022" stroke="#9E93B3"/>
<path d="M205.379 160.314L247.372 133" stroke="#9E93B3"/>
<path d="M192.871 155L190.645 161.517L185.452 157.897L188.419 162.966L181 165.862H189.161L185.452 173.103L190.645 168.759L193.613 176V168.759L201.032 173.103L195.839 167.31L204 165.862L196.581 165.138L200.29 160.069L194.355 162.241L192.871 155Z" fill="white"/>
<path d="M565.871 212L563.645 218.517L558.452 214.897L561.419 219.966L554 222.862H562.161L558.452 230.103L563.645 225.759L566.613 233V225.759L574.032 230.103L568.839 224.31L577 222.862L569.581 222.138L573.29 217.069L567.355 219.241L565.871 212Z" fill="#FF0000"/>
<path d="M1189.87 230L1187.65 236.517L1182.45 232.897L1185.42 237.966L1178 240.862H1186.16L1182.45 248.103L1187.65 243.759L1190.61 251V243.759L1198.03 248.103L1192.84 242.31L1201 240.862L1193.58 240.138L1197.29 235.069L1191.35 237.241L1189.87 230Z" fill="#FF0000"/>
<circle cx="40.5" cy="20.5" r="3.5" fill="white"/>
<circle cx="87.5" cy="92.5" r="3.5" fill="white"/>
<circle cx="155.5" cy="102.5" r="3.5" fill="#FF0000"/>
<circle cx="251.5" cy="130.5" r="3.5" fill="white"/>
<circle cx="468.5" cy="213.5" r="3.5" fill="white"/>
<circle cx="491.5" cy="176.5" r="3.5" fill="white"/>
<circle cx="735.5" cy="286.5" r="3.5" fill="#FF0000"/>
<circle cx="1115.5" cy="255.5" r="3.5" fill="white"/>
<circle cx="1057.5" cy="359.5" r="3.5" fill="#FF0000"/>
<circle cx="959.5" cy="426.5" r="3.5" fill="white"/>
<circle cx="496.5" cy="241.5" r="3.5" fill="white"/>
<circle cx="328.195" cy="337.728" r="3.5" fill="#FF0000"/>
<circle cx="286.195" cy="313.728" r="3.5" fill="white"/>
<circle cx="202.195" cy="347.728" r="3.5" fill="white"/>
<circle cx="213.195" cy="461.728" r="3.5" fill="#FF0000"/>
<circle cx="151.195" cy="449.728" r="3.5" fill="white"/>
<path d="M216.248 456.876L263.823 366.299" stroke="#407C8E"/>
<path d="M208.137 461.418L156.695 450.708" stroke="#407C8E"/>
<path d="M256.74 352.481L207.913 347.205" stroke="#407C8E"/>
<path d="M283.695 318.228L270.106 348.206" stroke="#407C8E"/>
<path d="M323.746 341.062L277.859 354.093" stroke="#407C8E"/>
<path d="M291.695 314.228L324.103 334.073" stroke="#407C8E"/>
<path d="M152.695 445.228L199.648 352.228" stroke="#407C8E"/>
<path d="M994.908 154.869L1050.78 200.77C1050.78 200.77 1051.28 205.152 1050.78 208.148C1050.28 211.143 1048.97 214.509 1047.49 217.164C1045.29 221.121 1043.26 222.381 1039.27 224.541C1036.06 226.282 1030.24 227 1030.24 227L971.902 181.918L989.978 189.295L939.038 154.869L977.654 170.443L930 127L984.227 162.246L959.578 129.459L1003.12 168.803L994.908 154.869Z" fill="#2D4297"/>
<path d="M631.574 461.988L605.837 486.594C605.837 486.594 603.666 486.58 602.231 486.158C600.796 485.737 599.227 484.899 598.017 484.02C596.212 482.709 595.715 481.645 594.895 479.568C594.233 477.893 594.226 475.004 594.226 475.004L619.707 449.145L615.034 457.547L634.87 434.674L624.978 452.634L649.027 431.899L628.597 456.331L646.08 446.215L624.277 465.182L631.574 461.988Z" fill="#2D4297"/>
<path d="M1045.75 208C1045.75 215.603 1039.81 221.75 1032.5 221.75C1025.19 221.75 1019.25 215.603 1019.25 208C1019.25 200.397 1025.19 194.25 1032.5 194.25C1039.81 194.25 1045.75 200.397 1045.75 208Z" fill="#C8A76B" stroke="black" stroke-width="0.5"/>
<path d="M602.614 483.583C598.963 483.143 596.362 479.935 596.785 476.436C597.207 472.936 600.496 470.439 604.147 470.88C607.799 471.32 610.399 474.528 609.977 478.027C609.555 481.527 606.266 484.024 602.614 483.583Z" fill="#C8A76B" stroke="black" stroke-width="0.5"/>
<path d="M389.556 389.228L388.719 392.253L385.928 390.878L387.044 393.903L383.695 395.003L387.044 395.828L386.207 399.128L388.719 396.928L389.556 400.228L391.23 396.928L393.742 398.853L392.346 395.828L395.695 395.003L392.346 393.628L393.742 390.603L390.951 392.253L389.556 389.228Z" fill="#E186A2"/>
<path d="M266.486 347.228L265.23 351.903L261.044 349.778L262.719 354.453L257.695 356.153L262.719 357.428L261.463 362.528L265.23 359.128L266.486 364.228L268.998 359.128L272.765 362.103L270.672 357.428L275.695 356.153L270.672 354.028L272.765 349.353L268.579 351.903L266.486 347.228Z" fill="#E186A2"/>
<path d="M1066.6 12L1064.23 20.525L1056.33 16.65L1059.49 25.175L1050 28.275L1059.49 30.6L1057.12 39.9L1064.23 33.7L1066.6 43L1071.35 33.7L1078.47 39.125L1074.51 30.6L1084 28.275L1074.51 24.4L1078.47 15.875L1070.56 20.525L1066.6 12Z" fill="#E186A2"/>
<path d="M977.93 514L974.512 526.375L963.116 520.75L967.674 533.125L954 537.625L967.674 541L964.256 554.5L974.512 545.5L977.93 559L984.767 545.5L995.023 553.375L989.326 541L1003 537.625L989.326 532L995.023 519.625L983.628 526.375L977.93 514Z" fill="#E186A2"/>
<path d="M878 111L876.56 115.56L872 117.72L876.56 118.92L878 123L879.44 118.92L884 117.24L879.44 115.56L878 111Z" fill="#558278"/>
<path d="M286.5 8L285 13.5L280 11L282 16.5L276 18.5L282 20L280.5 26L285 22L286.5 28L289.5 22L294 25.5L291.5 20L297.5 18.5L291.5 16L294 10.5L289 13.5L286.5 8Z" fill="#CEA874"/>
<path d="M279.256 731L274.791 747.5L259.907 740L265.86 756.5L248 762.5L265.86 767L261.395 785L274.791 773L279.256 791L288.186 773L301.581 783.5L294.14 767L312 762.5L294.14 755L301.581 738.5L286.698 747.5L279.256 731Z" fill="#CEA874"/>
<path d="M768.937 635V642.836L761 646.284L768.937 647.537L769.889 656L773.381 648.791L781 652.552L776.556 645.03L781 639.701L774.016 641.896L768.937 635Z" fill="#EBD9B1"/>
<path d="M1202.73 456.52L1191.21 461.372L1181.28 451.987L1184.29 464.283L1172.43 470.906L1185.17 471.511L1184.3 484.899L1192.64 473.79L1203.19 476.941L1195.69 468.162L1202.73 456.52Z" fill="#EBD9B1"/>
<path d="M1279.5 562L1276.5 571.5L1267 576L1276.5 578.5L1279.5 587L1282.5 578.5L1292 575L1282.5 571.5L1279.5 562Z" fill="#2D4297"/>
<path d="M774.5 62L771.5 71.5L762 76L771.5 78.5L774.5 87L777.5 78.5L787 75L777.5 71.5L774.5 62Z" fill="#2D4297"/>
<path d="M959.5 638L952.42 660.42L930 671.04L952.42 676.94L959.5 697L966.58 676.94L989 668.68L966.58 660.42L959.5 638Z" fill="#2D4297"/>
<path d="M493.5 48L489.5 52.5L483 51.5L485.5 57.5L483 63L489 61.5L493.5 66L494.5 60.5L500 58L494.5 54.5L493.5 48Z" fill="#997AB1"/>
<path d="M1281.5 727L1277.5 731.5L1271 730.5L1273.5 736.5L1271 742L1277 740.5L1281.5 745L1282.5 739.5L1288 737L1282.5 733.5L1281.5 727Z" fill="#997AB1"/>
<path d="M522.5 21L492 54.5L535.5 34.5H523.5L534.5 22.5L521 31.5L522.5 21Z" fill="#8F3483"/>
<path d="M1310.5 700L1280 733.5L1323.5 713.5H1311.5L1322.5 701.5L1309 710.5L1310.5 700Z" fill="#8F3483"/>
<path d="M193.778 578.848L151.16 650.756L222.304 598.394L200.62 602.869L216.021 577.083L194.984 598.381L193.778 578.848Z" fill="#8F3483"/>
<path d="M149.973 635.987L144.424 645.61L132.305 646.227L139.06 656.137L136.594 667.007L146.877 662.059L156.686 668.512L156.442 658.201L165.448 651.632L154.204 647.359L149.973 635.987Z" fill="#997AB1"/>
<path d="M953.555 426.94L838.001 411.418" stroke="#325B68"/>
<path d="M1054.25 364L964.046 424.064" stroke="#325B68"/>
<path d="M1111.74 260L1060.61 355.552" stroke="#325B68"/>
<path d="M1180.16 243.57L1120.78 253.737" stroke="#325B68"/>
<path d="M579.742 222.473L730.718 284.032" stroke="#407C8E"/>
<path d="M497 178L555.797 213.381" stroke="#407C8E"/>
<path d="M472 217.221L491.497 239.042" stroke="#407C8E"/>
<path d="M469.906 208.958L487.334 180" stroke="#407C8E"/>
<path d="M502.221 241.573L553.567 224.478" stroke="#407C8E"/>
<path d="M663 522L659.64 532.64L649 537.68L659.64 540.48L663 550L666.36 540.48L677 536.56L666.36 532.64L663 522Z" fill="#2D4297"/>
<path d="M461.07 679L458.488 688.35L449.884 684.1L453.326 693.45L443 696.85L453.326 699.4L450.744 709.6L458.488 702.8L461.07 713L466.233 702.8L473.977 708.75L469.674 699.4L480 696.85L469.674 692.6L473.977 683.25L465.372 688.35L461.07 679Z" fill="#E186A2"/>
<ellipse cx="470.12" cy="474.5" rx="4" ry="4.5" fill="#7EBBC7"/>
<path d="M455.239 460.134L465.422 469.276" stroke="#7EBBC7"/>
<path d="M455.579 489.563L465.123 479.756" stroke="#7EBBC7"/>
<path d="M470.456 454L470.477 467.685" stroke="#7EBBC7"/>
<path d="M470.456 481.315L470.477 495" stroke="#7EBBC7"/>
<path d="M485.394 459.874L475.816 469.649" stroke="#7EBBC7"/>
<path d="M462.685 474.759L449 474.674" stroke="#7EBBC7"/>
<path d="M490.761 474.759L477.076 474.674" stroke="#7EBBC7"/>
<path d="M485.022 488.771L475.516 479.755" stroke="#7EBBC7"/>
<path d="M659 734L689.375 763L719 734" stroke="white" stroke-width="2"/>
</svg>
