<svg width="1373" height="881" viewBox="0 0 1373 881" fill="none" xmlns="http://www.w3.org/2000/svg">
<circle cx="1161.5" cy="346.5" r="2.5" fill="white"/>
<circle cx="84.5" cy="434.5" r="2.5" fill="white"/>
<circle cx="544.5" cy="609.5" r="2.5" fill="white"/>
<circle cx="530.5" cy="354.5" r="2.5" fill="white"/>
<circle cx="373.5" cy="118.5" r="2.5" fill="white"/>
<circle cx="202.5" cy="69.5" r="2.5" fill="white"/>
<circle cx="1078.5" cy="724.5" r="2.5" fill="white"/>
<circle cx="308.195" cy="444.728" r="2.5" fill="white"/>
<circle cx="1324.5" cy="340.5" r="2.5" fill="white"/>
<circle cx="94.5" cy="801.5" r="2.5" fill="white"/>
<circle cx="1217.5" cy="724.5" r="2.5" fill="white"/>
<circle cx="364.5" cy="305.5" r="2.5" fill="white"/>
<circle cx="7.5" cy="101.5" r="2.5" fill="white"/>
<circle cx="551.5" cy="604.5" r="2.5" fill="white"/>
<circle cx="877.5" cy="7.5" r="2.5" fill="white"/>
<circle cx="69.5" cy="224.5" r="2.5" fill="white"/>
<circle cx="665.5" cy="62.5" r="2.5" fill="white"/>
<circle cx="1064.5" cy="141.5" r="2.5" fill="white"/>
<circle cx="1329.5" cy="267.5" r="2.5" fill="white"/>
<circle cx="1331.5" cy="874.5" r="2.5" fill="white"/>
<circle cx="1192.5" cy="38.5" r="2.5" fill="white"/>
<circle cx="1212.5" cy="196.5" r="2.5" fill="white"/>
<circle cx="1346.5" cy="113.5" r="2.5" fill="white"/>
<circle cx="1289.5" cy="67.5" r="2.5" fill="white"/>
<circle cx="1366.5" cy="2.5" r="2.5" fill="white"/>
<circle cx="1164.5" cy="116.5" r="2.5" fill="white"/>
<circle cx="1370.5" cy="212.5" r="2.5" fill="white"/>
<circle cx="1294.5" cy="461.5" r="2.5" fill="white"/>
<circle cx="1169.5" cy="591.5" r="2.5" fill="white"/>
<circle cx="435.5" cy="658.5" r="2.5" fill="white"/>
<circle cx="229.5" cy="873.5" r="2.5" fill="white"/>
<circle cx="76.5" cy="643.5" r="2.5" fill="white"/>
<circle cx="248.5" cy="641.5" r="2.5" fill="white"/>
<circle cx="330.5" cy="655.5" r="2.5" fill="white"/>
<circle cx="806.5" cy="496.5" r="2.5" fill="white"/>
<circle cx="708.5" cy="388.5" r="2.5" fill="white"/>
<circle cx="290.5" cy="240.5" r="2.5" fill="white"/>
<circle cx="24.5" cy="325.5" r="2.5" fill="white"/>
<circle cx="69.5" cy="516.5" r="2.5" fill="white"/>
<circle cx="762.5" cy="183.5" r="2.5" fill="white"/>
<circle cx="124.5" cy="13.5" r="2.5" fill="white"/>
<circle cx="909.5" cy="232.5" r="2.5" fill="white"/>
<circle cx="577.5" cy="278.5" r="2.5" fill="white"/>
<circle cx="428.5" cy="229.5" r="2.5" fill="white"/>
<circle cx="414.5" cy="878.5" r="2.5" fill="white"/>
<circle cx="572.5" cy="760.5" r="2.5" fill="white"/>
<circle cx="980.5" cy="783.5" r="2.5" fill="white"/>
<circle cx="1148.5" cy="837.5" r="2.5" fill="white"/>
<circle cx="419.5" cy="793.5" r="2.5" fill="white"/>
<circle cx="2.5" cy="718.5" r="2.5" fill="white"/>
<circle cx="869.5" cy="806.5" r="2.5" fill="white"/>
<path d="M159 111.625L184 160.949" stroke="#9E93B3"/>
<path d="M92 100L151.441 104.374" stroke="#9E93B3"/>
<path d="M84 93L43.8307 30.3022" stroke="#9E93B3"/>
<path d="M205.379 165.314L247.372 138" stroke="#9E93B3"/>
<path d="M192.871 160L190.645 166.517L185.452 162.897L188.419 167.966L181 170.862H189.161L185.452 178.103L190.645 173.759L193.613 181V173.759L201.032 178.103L195.839 172.31L204 170.862L196.581 170.138L200.29 165.069L194.355 167.241L192.871 160Z" fill="white"/>
<path d="M565.871 217L563.645 223.517L558.452 219.897L561.419 224.966L554 227.862H562.161L558.452 235.103L563.645 230.759L566.613 238V230.759L574.032 235.103L568.839 229.31L577 227.862L569.581 227.138L573.29 222.069L567.355 224.241L565.871 217Z" fill="#FF0000"/>
<path d="M1189.87 235L1187.65 241.517L1182.45 237.897L1185.42 242.966L1178 245.862H1186.16L1182.45 253.103L1187.65 248.759L1190.61 256V248.759L1198.03 253.103L1192.84 247.31L1201 245.862L1193.58 245.138L1197.29 240.069L1191.35 242.241L1189.87 235Z" fill="#FF0000"/>
<circle cx="40.5" cy="25.5" r="3.5" fill="white"/>
<circle cx="87.5" cy="97.5" r="3.5" fill="white"/>
<circle cx="155.5" cy="107.5" r="3.5" fill="#FF0000"/>
<circle cx="251.5" cy="135.5" r="3.5" fill="white"/>
<circle cx="468.5" cy="218.5" r="3.5" fill="white"/>
<circle cx="491.5" cy="181.5" r="3.5" fill="white"/>
<circle cx="735.5" cy="291.5" r="3.5" fill="#FF0000"/>
<circle cx="1115.5" cy="260.5" r="3.5" fill="white"/>
<circle cx="1057.5" cy="364.5" r="3.5" fill="#FF0000"/>
<circle cx="959.5" cy="431.5" r="3.5" fill="white"/>
<circle cx="496.5" cy="246.5" r="3.5" fill="white"/>
<circle cx="328.195" cy="342.728" r="3.5" fill="#FF0000"/>
<circle cx="286.195" cy="318.728" r="3.5" fill="white"/>
<circle cx="202.195" cy="352.728" r="3.5" fill="white"/>
<circle cx="213.195" cy="466.728" r="3.5" fill="#FF0000"/>
<circle cx="151.195" cy="454.728" r="3.5" fill="white"/>
<path d="M216.248 461.876L263.823 371.299" stroke="#407C8E"/>
<path d="M208.137 466.418L156.695 455.708" stroke="#407C8E"/>
<path d="M256.74 357.481L207.913 352.205" stroke="#407C8E"/>
<path d="M283.695 323.228L270.106 353.206" stroke="#407C8E"/>
<path d="M323.746 346.062L277.859 359.093" stroke="#407C8E"/>
<path d="M291.695 319.228L324.103 339.073" stroke="#407C8E"/>
<path d="M152.695 450.228L199.648 357.228" stroke="#407C8E"/>
<path d="M994.908 159.869L1050.78 205.77C1050.78 205.77 1051.28 210.152 1050.78 213.148C1050.28 216.143 1048.97 219.509 1047.49 222.164C1045.29 226.121 1043.26 227.381 1039.27 229.541C1036.06 231.282 1030.24 232 1030.24 232L971.902 186.918L989.978 194.295L939.038 159.869L977.654 175.443L930 132L984.227 167.246L959.578 134.459L1003.12 173.803L994.908 159.869Z" fill="#2D4297"/>
<path d="M631.574 466.988L605.837 491.594C605.837 491.594 603.666 491.58 602.231 491.158C600.796 490.737 599.227 489.899 598.017 489.02C596.212 487.709 595.715 486.645 594.895 484.568C594.233 482.893 594.226 480.004 594.226 480.004L619.707 454.145L615.034 462.547L634.87 439.674L624.978 457.634L649.027 436.899L628.597 461.331L646.08 451.215L624.277 470.182L631.574 466.988Z" fill="#2D4297"/>
<path d="M1045.75 213C1045.75 220.603 1039.81 226.75 1032.5 226.75C1025.19 226.75 1019.25 220.603 1019.25 213C1019.25 205.397 1025.19 199.25 1032.5 199.25C1039.81 199.25 1045.75 205.397 1045.75 213Z" fill="#C8A76B" stroke="black" stroke-width="0.5"/>
<path d="M602.614 488.583C598.963 488.143 596.362 484.935 596.785 481.436C597.207 477.936 600.496 475.439 604.147 475.88C607.799 476.32 610.399 479.528 609.977 483.027C609.555 486.527 606.266 489.024 602.614 488.583Z" fill="#C8A76B" stroke="black" stroke-width="0.5"/>
<path d="M389.556 394.228L388.719 397.253L385.928 395.878L387.044 398.903L383.695 400.003L387.044 400.828L386.207 404.128L388.719 401.928L389.556 405.228L391.23 401.928L393.742 403.853L392.346 400.828L395.695 400.003L392.346 398.628L393.742 395.603L390.951 397.253L389.556 394.228Z" fill="#E186A2"/>
<path d="M266.486 352.228L265.23 356.903L261.044 354.778L262.719 359.453L257.695 361.153L262.719 362.428L261.463 367.528L265.23 364.128L266.486 369.228L268.998 364.128L272.765 367.103L270.672 362.428L275.695 361.153L270.672 359.028L272.765 354.353L268.579 356.903L266.486 352.228Z" fill="#E186A2"/>
<path d="M1066.6 17L1064.23 25.525L1056.33 21.65L1059.49 30.175L1050 33.275L1059.49 35.6L1057.12 44.9L1064.23 38.7L1066.6 48L1071.35 38.7L1078.47 44.125L1074.51 35.6L1084 33.275L1074.51 29.4L1078.47 20.875L1070.56 25.525L1066.6 17Z" fill="#E186A2"/>
<path d="M977.93 519L974.512 531.375L963.116 525.75L967.674 538.125L954 542.625L967.674 546L964.256 559.5L974.512 550.5L977.93 564L984.767 550.5L995.023 558.375L989.326 546L1003 542.625L989.326 537L995.023 524.625L983.628 531.375L977.93 519Z" fill="#E186A2"/>
<path d="M878 116L876.56 120.56L872 122.72L876.56 123.92L878 128L879.44 123.92L884 122.24L879.44 120.56L878 116Z" fill="#558278"/>
<path d="M286.5 13L285 18.5L280 16L282 21.5L276 23.5L282 25L280.5 31L285 27L286.5 33L289.5 27L294 30.5L291.5 25L297.5 23.5L291.5 21L294 15.5L289 18.5L286.5 13Z" fill="#CEA874"/>
<path d="M279.256 736L274.791 752.5L259.907 745L265.86 761.5L248 767.5L265.86 772L261.395 790L274.791 778L279.256 796L288.186 778L301.581 788.5L294.14 772L312 767.5L294.14 760L301.581 743.5L286.698 752.5L279.256 736Z" fill="#CEA874"/>
<path d="M716.937 613V620.836L709 624.284L716.937 625.537L717.889 634L721.381 626.791L729 630.552L724.556 623.03L729 617.701L722.016 619.896L716.937 613Z" fill="#EBD9B1"/>
<path d="M1202.73 461.52L1191.21 466.372L1181.28 456.987L1184.29 469.283L1172.43 475.906L1185.17 476.511L1184.3 489.899L1192.64 478.79L1203.19 481.941L1195.69 473.162L1202.73 461.52Z" fill="#EBD9B1"/>
<path d="M1279.5 567L1276.5 576.5L1267 581L1276.5 583.5L1279.5 592L1282.5 583.5L1292 580L1282.5 576.5L1279.5 567Z" fill="#2D4297"/>
<path d="M774.5 67L771.5 76.5L762 81L771.5 83.5L774.5 92L777.5 83.5L787 80L777.5 76.5L774.5 67Z" fill="#2D4297"/>
<path d="M959.5 643L952.42 665.42L930 676.04L952.42 681.94L959.5 702L966.58 681.94L989 673.68L966.58 665.42L959.5 643Z" fill="#2D4297"/>
<path d="M493.5 53L489.5 57.5L483 56.5L485.5 62.5L483 68L489 66.5L493.5 71L494.5 65.5L500 63L494.5 59.5L493.5 53Z" fill="#997AB1"/>
<path d="M1281.5 732L1277.5 736.5L1271 735.5L1273.5 741.5L1271 747L1277 745.5L1281.5 750L1282.5 744.5L1288 742L1282.5 738.5L1281.5 732Z" fill="#997AB1"/>
<path d="M522.5 26L492 59.5L535.5 39.5H523.5L534.5 27.5L521 36.5L522.5 26Z" fill="#8F3483"/>
<path d="M1310.5 705L1280 738.5L1323.5 718.5H1311.5L1322.5 706.5L1309 715.5L1310.5 705Z" fill="#8F3483"/>
<path d="M193.778 583.848L151.16 655.756L222.304 603.394L200.62 607.869L216.021 582.083L194.984 603.381L193.778 583.848Z" fill="#8F3483"/>
<path d="M149.973 640.987L144.424 650.61L132.305 651.227L139.06 661.137L136.594 672.007L146.877 667.059L156.686 673.512L156.442 663.201L165.448 656.632L154.204 652.359L149.973 640.987Z" fill="#997AB1"/>
<path d="M953.555 431.94L838.001 416.418" stroke="#325B68"/>
<path d="M1054.25 369L964.046 429.064" stroke="#325B68"/>
<path d="M1111.74 265L1060.61 360.552" stroke="#325B68"/>
<path d="M1180.16 248.57L1120.78 258.737" stroke="#325B68"/>
<path d="M579.742 227.473L730.718 289.032" stroke="#407C8E"/>
<path d="M497 183L555.797 218.381" stroke="#407C8E"/>
<path d="M472 222.221L491.497 244.042" stroke="#407C8E"/>
<path d="M469.906 213.958L487.334 185" stroke="#407C8E"/>
<path d="M502.221 246.573L553.567 229.478" stroke="#407C8E"/>
<path d="M663 527L659.64 537.64L649 542.68L659.64 545.48L663 555L666.36 545.48L677 541.56L666.36 537.64L663 527Z" fill="#2D4297"/>
<path d="M461.07 684L458.488 693.35L449.884 689.1L453.326 698.45L443 701.85L453.326 704.4L450.744 714.6L458.488 707.8L461.07 718L466.233 707.8L473.977 713.75L469.674 704.4L480 701.85L469.674 697.6L473.977 688.25L465.372 693.35L461.07 684Z" fill="#E186A2"/>
<ellipse cx="470.12" cy="479.5" rx="4" ry="4.5" fill="#7EBBC7"/>
<ellipse cx="766.12" cy="731.5" rx="4" ry="4.5" fill="#7EBBC7"/>
<path d="M455.239 465.134L465.422 474.276" stroke="#7EBBC7"/>
<path d="M751.239 717.134L761.422 726.276" stroke="#7EBBC7"/>
<path d="M455.579 494.563L465.123 484.756" stroke="#7EBBC7"/>
<path d="M751.579 746.563L761.123 736.756" stroke="#7EBBC7"/>
<path d="M470.456 459L470.477 472.685" stroke="#7EBBC7"/>
<path d="M766.456 711L766.477 724.685" stroke="#7EBBC7"/>
<path d="M470.456 486.315L470.477 500" stroke="#7EBBC7"/>
<path d="M766.456 738.315L766.477 752" stroke="#7EBBC7"/>
<path d="M485.394 464.874L475.816 474.649" stroke="#7EBBC7"/>
<path d="M781.394 716.874L771.816 726.649" stroke="#7EBBC7"/>
<path d="M462.685 479.759L449 479.674" stroke="#7EBBC7"/>
<path d="M758.685 731.759L745 731.674" stroke="#7EBBC7"/>
<path d="M490.761 479.759L477.076 479.674" stroke="#7EBBC7"/>
<path d="M786.761 731.759L773.076 731.674" stroke="#7EBBC7"/>
<path d="M485.022 493.771L475.516 484.755" stroke="#7EBBC7"/>
<path d="M781.022 745.771L771.516 736.755" stroke="#7EBBC7"/>
</svg>
