<svg width="114" height="23" viewBox="0 0 114 23" fill="none" xmlns="http://www.w3.org/2000/svg">
<path d="M33.5 0L36.0819 7.9463H44.4371L37.6776 12.8574L40.2595 20.8037L33.5 15.8926L26.7405 20.8037L29.3224 12.8574L22.5628 7.9463H30.9181L33.5 0Z" fill="#C4C4C4"/>
<path d="M11.5 0L14.0819 7.9463H22.4371L15.6776 12.8574L18.2595 20.8037L11.5 15.8926L4.74047 20.8037L7.32238 12.8574L0.56285 7.9463H8.91809L11.5 0Z" fill="#C4C4C4"/>
<path d="M56.5 0L59.0819 7.9463H67.4371L60.6776 12.8574L63.2595 20.8037L56.5 15.8926L49.7405 20.8037L52.3224 12.8574L45.5628 7.9463H53.9181L56.5 0Z" fill="#C4C4C4"/>
<path d="M79.5 0L82.0819 7.9463H90.4371L83.6776 12.8574L86.2595 20.8037L79.5 15.8926L72.7405 20.8037L75.3224 12.8574L68.5628 7.9463H76.9181L79.5 0Z" fill="#C4C4C4"/>
<path d="M102.5 0L105.082 7.9463H113.437L106.678 12.8574L109.26 20.8037L102.5 15.8926L95.7405 20.8037L98.3224 12.8574L91.5628 7.9463H99.9181L102.5 0Z" fill="#C4C4C4"/>
</svg>
