<svg width="69" height="23" viewBox="0 0 69 23" fill="none" xmlns="http://www.w3.org/2000/svg">
<path d="M11.5 0L14.0819 7.9463H22.4371L15.6776 12.8574L18.2595 20.8037L11.5 15.8926L4.74047 20.8037L7.32238 12.8574L0.56285 7.9463H8.91809L11.5 0Z" fill="#C4C4C4"/>
<path d="M34.5 0L37.0819 7.9463H45.4371L38.6776 12.8574L41.2595 20.8037L34.5 15.8926L27.7405 20.8037L30.3224 12.8574L23.5628 7.9463H31.9181L34.5 0Z" fill="#C4C4C4"/>
<path d="M57.5 0L60.0819 7.9463H68.4371L61.6776 12.8574L64.2595 20.8037L57.5 15.8926L50.7405 20.8037L53.3224 12.8574L46.5628 7.9463H54.9181L57.5 0Z" fill="#C4C4C4"/>
</svg>
